<?xml version="1.0" encoding="UTF-8"?>
<!DOCTYPE svg PUBLIC "-//W3C//DTD SVG 1.1//EN" "http://www.w3.org/Graphics/SVG/1.1/DTD/svg11.dtd">
<!-- Creator: CorelDRAW X7 -->
<svg xmlns="http://www.w3.org/2000/svg" xml:space="preserve" width="0.328949in" height="0.329697in" version="1.1" style="shape-rendering:geometricPrecision; text-rendering:geometricPrecision; image-rendering:optimizeQuality; fill-rule:evenodd; clip-rule:evenodd"
viewBox="0 0 342 342"
 xmlns:xlink="http://www.w3.org/1999/xlink">
 <defs>
  <style type="text/css">
   <![CDATA[
    .fil0 {fill:#FEDB47}
    .fil3 {fill:#FCCC20}
    .fil4 {fill:#F9BA0F}
    .fil5 {fill:#DC9B1D}
    .fil2 {fill:#843429}
    .fil1 {fill:#6B983A}
    .fil6 {fill:#005F5D}
   ]]>
  </style>
 </defs>
 <g id="Layer_x0020_1">
  <metadata id="CorelCorpID_0Corel-Layer"/>
  <g id="_563359712">
   <path class="fil0" d="M73 278l0 0 0 0c1,1 2,1 2,2 0,-1 -1,-1 -1,-2l0 0 -1 0 0 0 0 0 0 0 0 0 0 0 0 0 0 0zm-33 -247c0,0 -1,0 -2,0 -2,0 -4,0 -6,1 -1,0 -2,1 -4,1 -1,1 -2,1 -4,2 -2,2 -4,4 -6,6 -1,2 -3,5 -5,8 -1,3 -2,5 -3,9 -2,5 -4,12 -5,20 -1,5 -2,11 -3,18 0,2 0,3 0,5l-1 3 0 0c0,4 0,7 -1,10 -2,31 5,64 18,95 7,14 15,29 25,42 10,14 21,26 33,37 12,11 25,21 39,29 15,8 30,15 45,19 7,2 15,4 23,5 8,1 16,1 24,1l1 0c16,0 32,-2 48,-7 4,-1 8,-3 14,-5 6,-2 12,-5 17,-7 7,-4 13,-7 19,-11 7,-3 12,-7 17,-12 5,-4 9,-9 13,-14 3,-5 5,-10 6,-15 0,-3 0,-6 -1,-9 -1,-4 -2,-7 -5,-10 -4,-5 -10,-8 -19,-10 -4,-1 -8,-1 -12,-1 -1,0 -1,0 -2,0 -7,0 -14,0 -21,1 -2,0 -5,0 -7,0 -11,1 -22,1 -33,2 -7,0 -13,-1 -19,-1 -7,-1 -14,-2 -20,-4 -5,-1 -10,-3 -14,-5 -5,-1 -10,-4 -14,-6 -11,-6 -21,-14 -30,-23 -8,-8 -16,-18 -24,-29 -4,-5 -7,-10 -11,-16 -4,-5 -7,-10 -9,-15l0 0c-3,-5 -6,-9 -8,-14l-2 -4c-3,-6 -7,-13 -12,-20 -4,-8 -9,-14 -14,-19 -5,-5 -10,-9 -16,-12 -1,-1 -2,-1 -3,-1 1,-3 3,-5 5,-8 1,-1 2,-2 3,-3 2,-2 5,-6 7,-11 0,-2 1,-4 1,-5 0,-1 0,-2 -1,-3 0,-1 0,-2 0,-3 -1,-1 -1,-2 -3,-4 0,-1 -2,-2 -3,-3 -3,-2 -7,-3 -11,-4 -1,0 -2,0 -4,0z"/>
   <path class="fil1" d="M38 31c-2,0 -4,0 -6,1 -1,0 -2,1 -4,1 -1,1 -2,1 -4,2 -2,2 -4,4 -6,6 -2,2 -3,5 -5,8 -1,3 -2,5 -3,9 -1,3 -2,5 -3,9 2,2 4,4 6,6l1 0 0 0c0,1 0,1 0,1 0,0 1,0 0,1 0,0 0,0 0,0l-1 -1 0 0 0 0 0 0c0,1 0,1 1,1 1,0 2,1 3,1l0 0 0 0 0 0 0 0 0 0c1,1 2,1 3,2 1,0 3,0 4,0 1,0 3,0 4,0 2,0 4,0 5,0l0 0c2,0 4,-1 6,-1 2,-1 4,-2 6,-2l0 0c0,-1 1,-1 1,-1 2,-2 4,-4 5,-6 1,-1 2,-2 3,-3 2,-3 5,-7 7,-12 0,-2 1,-4 1,-5 0,-1 0,-2 0,-3 -1,-1 -1,-2 -1,-3 -1,-1 -1,-2 -2,-4 -1,-1 -3,-2 -4,-3 -3,-2 -7,-3 -11,-4 -1,0 -2,0 -4,0 0,0 -1,0 -2,0z"/>
   <path class="fil2" d="M38 31c-2,0 -4,0 -6,1 -1,0 -2,1 -4,1 -1,1 -2,1 -3,2 0,1 1,1 2,2 1,1 3,3 5,4l0 0 0 0 0 0 0 0 0 0 0 0c1,1 3,2 5,3 2,1 4,2 6,2l0 0c2,1 4,2 7,2 2,0 4,1 6,1l0 0 0 0 0 0 0 0c2,0 4,0 6,0 0,-1 0,-1 0,-1 0,-1 0,-2 0,-3 -1,-1 -1,-2 -1,-3 -1,-1 -1,-2 -2,-4 -1,-1 -3,-2 -4,-3 -3,-2 -7,-3 -11,-4 -1,0 -2,0 -4,0 0,0 -1,0 -2,0z"/>
   <polygon class="fil2" points="56,49 56,49 "/>
   <path class="fil3" d="M31 83c0,1 0,1 0,1 9,20 19,41 29,60 13,26 27,52 46,74l0 0c6,7 12,13 18,19 3,3 7,6 10,9 3,2 7,5 10,7l0 0c6,5 13,8 19,12 3,1 7,3 10,4 4,2 7,3 11,5l0 0c7,2 14,4 21,5 4,1 8,2 11,3 4,0 8,0 11,1l0 0 1 0c7,0 15,1 22,0 4,0 8,0 12,-1 4,0 7,-1 11,-1l0 0 0 0c8,-2 15,-4 22,-6 4,-1 7,-2 11,-4 3,-1 7,-2 10,-4 7,-3 13,-6 19,-10 1,-1 2,-1 3,-2 0,-1 -1,-2 -2,-3 0,-1 -1,-1 -2,-2 -2,0 -4,1 -6,1l0 0c-5,1 -9,2 -14,4 -5,1 -10,2 -15,3 -2,1 -4,1 -7,2 -2,0 -4,0 -6,1 -4,0 -8,1 -12,1 -8,1 -17,1 -25,1 -8,0 -15,-1 -23,-2 -8,-1 -16,-3 -23,-5 -8,-2 -15,-5 -22,-8 -7,-4 -14,-7 -21,-12 -6,-4 -13,-9 -19,-14 -6,-6 -12,-11 -17,-18 -6,-6 -11,-13 -15,-19 -5,-7 -9,-14 -14,-21 -4,-7 -8,-14 -12,-20 -5,-7 -9,-14 -14,-21 -2,-3 -4,-6 -7,-9 -2,-3 -5,-7 -8,-10l1 0c-4,-4 -8,-8 -12,-12 -3,-2 -5,-4 -7,-6 -2,-1 -4,-2 -6,-4 0,0 0,1 1,1z"/>
   <path class="fil3" d="M336 258c0,-1 0,-1 1,-1 0,0 1,0 2,-1 0,0 0,0 0,0 -1,0 -2,1 -3,2z"/>
   <polygon class="fil3" points="11,73 11,73 11,73 "/>
   <path class="fil3" d="M10 73l0 0 0 0 1 0c0,0 0,0 0,1 -1,-1 -2,-2 -2,-3 0,1 1,1 1,2z"/>
   <path class="fil3" d="M52 105c-8,-9 -16,-18 -24,-26l-1 -1c0,0 0,0 0,0l0 0 0 0 -1 0c0,0 0,0 0,0 0,0 -1,1 0,1 -1,0 -1,1 0,1 0,1 1,1 2,2 3,4 6,8 9,12 4,6 8,13 12,20 0,0 1,0 1,0 1,0 1,0 1,-1 -3,-4 -6,-9 -9,-13l1 0 0 -1c0,1 0,1 0,1 0,0 1,1 1,1 0,0 1,-1 1,-1l0 0c2,2 3,4 5,7 0,0 0,0 1,0 0,0 0,0 1,0 0,0 0,-1 0,-1 0,0 0,-1 0,-1z"/>
   <path class="fil3" d="M33 78l0 0 0 0zm-7 -1l0 0 0 0zm-11 -4l1 0 -1 0zm-6 -3c-1,1 -1,1 -1,2 0,0 0,1 0,1 2,2 3,3 4,3 2,1 3,2 4,3 2,0 3,1 4,1 2,0 3,1 5,1 1,0 3,0 4,0 2,-1 3,-1 4,-1 2,0 3,-1 4,-1 2,-1 3,-2 5,-2 0,0 0,-1 -1,-1 -1,0 -2,1 -3,1l1 0c-2,0 -4,1 -6,1 -2,0 -3,0 -4,0 -1,-1 -2,-1 -3,-1 -4,-1 -7,-2 -10,-4 -2,-1 -3,-2 -5,-3 0,0 0,0 -1,0l0 0c0,0 -1,0 -1,0z"/>
   <path class="fil3" d="M1 102l0 0 0 2 0 0 0 1 0 0c0,3 0,6 -1,9 -2,31 5,64 18,95 7,14 15,29 25,42 10,14 21,26 33,37 12,11 25,21 39,29 15,8 30,15 45,19 7,2 15,4 23,5 8,1 16,1 24,1l1 0c16,0 32,-2 48,-7 4,-1 9,-3 14,-5 6,-2 12,-5 17,-7 7,-3 13,-7 19,-10 7,-4 12,-8 17,-13 5,-4 10,-9 13,-14 3,-5 5,-10 6,-15 0,-3 0,-6 -1,-9 -1,-4 -2,-7 -5,-10 -1,-1 -2,-2 -3,-3 0,2 0,3 -1,4 -1,4 -2,7 -4,10 -2,3 -4,6 -6,9 -3,3 -5,6 -8,8 -3,3 -6,5 -9,7 -6,4 -12,8 -19,11 -5,2 -9,4 -12,6 -5,1 -10,3 -14,4 -9,3 -18,4 -28,5 -5,1 -10,1 -16,1 -4,0 -8,0 -13,-1 -9,0 -19,-2 -28,-4 -4,-1 -9,-2 -13,-3 -4,-2 -8,-3 -12,-4 -8,-3 -15,-6 -22,-10 -7,-3 -14,-7 -21,-12 -13,-8 -26,-18 -37,-29 -11,-11 -21,-24 -30,-37 -9,-13 -16,-27 -22,-41 -6,-15 -11,-30 -13,-46 -2,-8 -3,-15 -3,-23 0,-1 0,-2 0,-2l-1 0z"/>
   <path class="fil4" d="M31 81c0,0 0,1 0,1 7,6 14,12 20,19 6,7 12,14 17,21l0 0c9,13 17,25 25,38 9,13 17,26 26,38 5,6 10,12 15,18 5,5 10,11 16,16 6,5 12,9 19,13 7,4 14,8 21,10 14,6 30,10 45,11 16,1 31,0 46,-3 8,-2 15,-3 23,-5 7,-2 15,-4 22,-5 1,0 1,-1 1,-1 0,-1 -1,-1 -1,-1 -10,2 -19,4 -28,6 -5,1 -10,2 -14,3 -4,0 -9,1 -13,1l1 0c-16,2 -31,2 -46,0 -14,-3 -27,-6 -40,-12 -11,-5 -21,-11 -31,-18l1 0c-9,-7 -16,-14 -23,-22 -7,-8 -14,-16 -20,-25 -18,-24 -34,-50 -53,-74 -8,-10 -18,-20 -28,-29l-1 0 0 0z"/>
   <path class="fil4" d="M4 109l0 0 0 0zm13 55l0 0 0 0zm258 136l0 0 0 0zm31 -18l0 1 0 -1zm-303 -178c0,4 0,8 1,12 0,4 1,8 2,13 1,4 1,8 2,12 1,4 2,8 3,12 2,4 3,7 4,11 2,4 3,8 5,12 3,7 6,14 10,22 4,7 8,14 13,21 4,6 9,13 14,19 11,13 23,24 36,34 14,11 29,21 44,28 9,4 18,7 27,9 9,3 18,5 28,6 18,2 37,1 55,-2 9,-2 18,-5 27,-8 9,-4 17,-7 25,-12 8,-4 15,-9 21,-15 3,-3 6,-6 9,-9 1,-1 2,-3 4,-4 1,-2 2,-4 4,-5 0,-1 0,-2 -1,-3 0,-1 -1,-1 -1,-1 -1,0 -2,0 -2,1 -2,2 -4,4 -6,7 -2,2 -4,4 -7,7 -4,4 -9,8 -14,12 -5,3 -10,6 -15,9 -6,3 -11,6 -17,8 -13,5 -27,8 -41,10 -8,1 -15,1 -23,1 -7,0 -15,-1 -23,-2 0,0 1,0 1,0 -8,-1 -16,-3 -24,-5 -7,-2 -15,-5 -22,-8 -5,-2 -10,-5 -14,-7 -5,-3 -9,-5 -14,-8 -8,-5 -16,-11 -24,-17l1 1c-8,-7 -16,-14 -24,-22 -3,-4 -7,-8 -10,-12 -4,-4 -7,-8 -10,-12 -6,-9 -12,-17 -17,-27 -2,-4 -4,-9 -7,-14 -2,-4 -4,-9 -6,-14l0 0c-3,-9 -6,-18 -8,-27 -2,-9 -4,-19 -5,-28l0 0c0,-2 0,-3 0,-5 0,0 -1,0 -1,0l0 0c0,0 0,0 0,0z"/>
   <path class="fil5" d="M43 237c0,0 0,0 -1,0 0,0 -1,1 -1,1 1,2 1,3 1,4 1,1 2,2 2,3 1,0 1,0 2,1l0 0c0,0 1,0 1,-1l0 1c1,0 1,-1 1,-1 1,0 1,-1 1,-1 0,-1 -1,-3 -2,-4 0,-1 0,-1 -1,-2 -1,0 -1,-1 -2,-1 0,0 0,0 -1,0z"/>
   <path class="fil5" d="M60 249c-1,0 -1,0 -1,0 -1,1 -1,1 -2,2 0,1 0,1 0,2 0,0 0,1 0,1 0,1 1,1 1,2 0,2 1,3 2,5 0,1 1,2 2,3 2,1 3,2 4,3 1,0 1,0 2,0 0,0 1,0 1,0l0 0c1,0 1,-1 1,-1 0,-1 0,-1 0,-1 0,0 0,-1 0,-1 0,0 0,0 0,0 0,-1 0,-2 0,-3 0,-1 -1,-2 -2,-4 -2,-2 -4,-5 -7,-7 0,0 -1,-1 -1,-1z"/>
   <path class="fil5" d="M147 315c0,0 -1,0 -1,0 -1,0 -2,0 -2,0 -1,1 -3,2 -3,3 0,0 0,1 0,1 0,1 0,1 0,1 0,1 0,1 1,2 1,1 2,2 2,2 2,2 4,3 6,4 2,1 4,1 6,2 1,0 2,1 3,1 2,0 3,1 5,1 0,0 0,0 1,0 1,0 2,0 3,-1 1,0 1,0 2,-1 0,0 1,-1 1,-1l0 0c0,-1 0,-1 0,-1 0,-1 0,-3 -1,-4 -1,-1 -2,-2 -4,-3 -1,-1 -2,-1 -4,-2 -2,-1 -3,-2 -5,-2 -2,-1 -4,-1 -5,-1 -1,-1 -2,-1 -3,-1 -1,0 -1,0 -2,0z"/>
   <path class="fil5" d="M185 318c-1,0 -1,0 -1,0 -1,0 -1,0 -2,0 -1,0 -1,0 -2,0l0 0 0 1c-1,0 -1,0 -1,1 0,0 0,1 0,2 1,1 2,2 2,2 1,1 2,1 2,1 1,0 2,1 2,1 2,0 3,0 5,0 1,0 1,0 2,0 1,0 1,0 2,-1l0 0c1,0 1,-1 1,-1 0,-2 -1,-3 -2,-4 -1,-1 -2,-2 -4,-2 -1,0 -3,0 -4,0z"/>
   <path class="fil5" d="M218 322l0 0c-3,0 -5,0 -8,1 -2,1 -4,2 -6,3 -1,0 -1,0 -1,1 -1,0 -1,0 -1,1 0,0 0,1 0,1 1,1 1,1 1,1 2,2 4,3 6,3 2,1 5,1 7,2l1 0c4,0 9,-1 14,-3 1,0 1,-2 1,-2 0,-1 0,-2 -1,-3l0 0c-4,-4 -10,-5 -13,-5z"/>
   <path class="fil5" d="M242 319c-2,0 -4,0 -5,1l-1 0c0,1 0,1 -1,1 0,1 0,2 0,2 0,1 0,1 1,2 0,0 0,0 1,0 0,0 1,1 1,1 1,0 2,0 3,0 1,0 1,0 2,0 1,-1 2,-1 3,-2 0,0 1,-1 1,-2 0,-1 0,-1 -1,-1 0,-1 0,-1 -1,-1 -1,-1 -2,-1 -3,-1z"/>
   <path class="fil5" d="M266 319l0 0c-1,0 -1,0 -2,1 0,0 0,0 -1,0 -1,0 -3,1 -4,2 -1,0 -1,1 -1,2 0,1 0,1 1,2 1,0 2,0 3,0l1 0c0,0 0,0 1,0 0,0 1,0 2,0 0,0 1,0 1,-1 1,0 1,0 1,-1 1,0 1,-1 1,-1 0,0 0,0 0,-1 0,0 0,0 0,-1 0,0 0,0 -1,-1l0 0 0 0c-1,-1 -1,-1 -2,-1z"/>
   <path class="fil5" d="M266 321l0 0 0 0zm1 0l0 0 0 0zm0 0l1 0 -1 0 0 0 0 1c0,0 0,0 -1,0 0,0 -1,1 -1,1 -1,0 -2,0 -4,0l0 0c0,0 1,-1 1,-1 1,-1 3,-1 4,-1 0,0 1,0 1,0zm-1 -3c-1,0 -2,0 -3,1 -1,0 -2,0 -3,1 0,0 -1,1 -1,1 -1,0 -1,1 -2,1 0,1 0,2 0,2 0,1 1,1 1,1 0,0 0,0 1,1 0,0 0,0 1,0 0,0 1,0 1,1 1,0 3,0 4,-1 2,0 5,-1 6,-3 0,-1 0,-2 -1,-3 0,0 0,-1 -1,-1 0,-1 -1,-1 -2,-1 -1,0 -1,0 -1,0z"/>
   <polygon class="fil6" points="93,12 93,12 93,12 "/>
   <polygon class="fil6" points="107,0 107,0 107,0 "/>
  </g>
 </g>
</svg>
